<?xml version="1.0" encoding="utf-8"?>
<!-- Generator: Adobe Illustrator 16.0.0, SVG Export Plug-In . SVG Version: 6.00 Build 0)  -->
<!DOCTYPE svg PUBLIC "-//W3C//DTD SVG 1.1//EN" "http://www.w3.org/Graphics/SVG/1.1/DTD/svg11.dtd">
<svg version="1.1" id="Layer_1" xmlns="http://www.w3.org/2000/svg" xmlns:xlink="http://www.w3.org/1999/xlink" x="0px" y="0px"
	 width="24px" height="25.4px" viewBox="0 0 24 25.4" style="enable-background:new 0 0 24 25.4;" xml:space="preserve">
<style type="text/css">
<![CDATA[
	.st0{fill:#AA0000;}
	.st1{fill-rule:evenodd;clip-rule:evenodd;fill:#3C599B;}
	
		.st2{fill-rule:evenodd;clip-rule:evenodd;fill:none;stroke:#AA0000;stroke-width:2;stroke-linecap:round;stroke-linejoin:round;stroke-miterlimit:10;}
	.st3{fill:#191919;}
	
		.st4{fill-rule:evenodd;clip-rule:evenodd;fill:none;stroke:#555555;stroke-width:2;stroke-linecap:round;stroke-linejoin:round;stroke-miterlimit:10;}
	.st5{fill-rule:evenodd;clip-rule:evenodd;fill:#DDDDDD;}
	.st6{fill-rule:evenodd;clip-rule:evenodd;fill:#DE0101;}
	.st7{fill-rule:evenodd;clip-rule:evenodd;fill:#AA0000;}
	
		.st8{fill-rule:evenodd;clip-rule:evenodd;fill:none;stroke:#CD0000;stroke-width:2;stroke-linecap:round;stroke-linejoin:round;stroke-miterlimit:10;}
	.st9{fill:#555555;}
	.st10{fill-rule:evenodd;clip-rule:evenodd;fill:#4B73A4;}
	.st11{fill-rule:evenodd;clip-rule:evenodd;fill:#191919;}
	.st12{fill:#252021;}
	
		.st13{fill-rule:evenodd;clip-rule:evenodd;fill:none;stroke:#CCCCCC;stroke-width:2;stroke-linecap:round;stroke-linejoin:round;stroke-miterlimit:10;}
	.st14{fill-rule:evenodd;clip-rule:evenodd;fill:none;stroke:#FFFFFF;stroke-linecap:round;stroke-miterlimit:10;}
	.st15{fill-rule:evenodd;clip-rule:evenodd;fill:#555555;}
	.st16{fill-rule:evenodd;clip-rule:evenodd;}
	.st17{fill:#FE2516;}
	.st18{fill:#FF2516;}
	.st19{fill:#FF2617;}
	.st20{fill:#FFFFFF;}
	.st21{fill-rule:evenodd;clip-rule:evenodd;fill:#F12517;}
	.st22{fill-rule:evenodd;clip-rule:evenodd;fill:#252021;}
	.st23{fill:#666666;}
	
		.st24{fill-rule:evenodd;clip-rule:evenodd;fill:none;stroke:#CD0000;stroke-linecap:square;stroke-linejoin:round;stroke-miterlimit:10;}
	.st25{fill-rule:evenodd;clip-rule:evenodd;fill:#F68634;}
	.st26{fill:#CCCCCC;}
	.st27{fill:#CD0000;}
	.st28{fill-rule:evenodd;clip-rule:evenodd;fill:#FD2516;}
	.st29{fill:#009900;}
	
		.st30{fill-rule:evenodd;clip-rule:evenodd;fill:none;stroke:#FF2516;stroke-width:2;stroke-linecap:round;stroke-linejoin:round;stroke-miterlimit:10;}
	.st31{fill-rule:evenodd;clip-rule:evenodd;fill:#FE2516;}
	.st32{fill-rule:evenodd;clip-rule:evenodd;fill:#FF2516;}
	.st33{fill-rule:evenodd;clip-rule:evenodd;fill:#FF2617;}
	.st34{fill-rule:evenodd;clip-rule:evenodd;fill:#FF2718;}
	.st35{fill-rule:evenodd;clip-rule:evenodd;fill:#FFFFFF;}
	.st36{fill-rule:evenodd;clip-rule:evenodd;fill:#CD0000;}
	.st37{fill-rule:evenodd;clip-rule:evenodd;fill:none;stroke:#FF2516;stroke-miterlimit:10;}
	.st38{fill-rule:evenodd;clip-rule:evenodd;fill:#009900;}
	.st39{fill:#DE0101;}
]]>
</style>
<g>
	<g>
		<path class="st6" d="M16.1,1.9c0.1,0,0.2-0.1,0.3-0.1c0.1,0,0.5,0,0.5,0.7v2.2H7.7L16.1,1.9z M16.9,18.1c-0.8,0-1.5-0.8-1.5-1.7
			v-2.6c0-0.9,0.7-1.7,1.5-1.7H24V8.2c0-1.9-1.4-3.4-3.1-3.4h-2.4V2.6C18.6,1,17.7,0,16.5,0c-0.3,0-0.5,0-0.8,0.1L2.9,4.5
			C2.6,4.6,2.3,4.8,2.1,5C0.9,5.5,0,6.8,0,8.2V9v13v0.8c0,1.6,0.9,2.6,2.1,2.6c0,0,0.1,0,0.1,0c0.3,0.1,0.5,0.1,0.8,0.1h17.8
			c1.7,0,3.1-1.5,3.1-3.4v-3.8H16.9z"/>
	</g>
	<g>
		<ellipse class="st39" cx="17.9" cy="15.1" rx="0.9" ry="1"/>
	</g>
</g>
</svg>
